<?xml version="1.0" encoding="utf-8"?>
<!-- Generator: Adobe Illustrator 21.0.0, SVG Export Plug-In . SVG Version: 6.00 Build 0)  -->
<svg version="1.1" id="Capa_1" xmlns="http://www.w3.org/2000/svg" xmlns:xlink="http://www.w3.org/1999/xlink" x="0px" y="0px"
	 viewBox="0 0 456.8 247.4" style="enable-background:new 0 0 456.8 247.4;" xml:space="preserve">
<title>eye</title>
<path d="M448.9,113.8c-0.9-1.2-23.1-28.9-61-56.8C337.2,19.7,282.1,0,228.4,0C174.7,0,119.6,19.7,68.8,56.9
	c-37.9,27.9-60.1,55.6-61,56.8L0,123.7l7.8,9.9c0.9,1.2,23.1,28.9,61,56.8c50.7,37.3,105.9,56.9,159.6,56.9
	c53.7,0,108.8-19.7,159.6-56.9c37.9-27.9,60.1-55.6,61-56.8l7.8-9.9L448.9,113.8z M228.4,210.3c-47.9,0-86.7-38.8-86.6-86.7
	c0-7.3,0.9-14.6,2.7-21.6l-19.8-3.3c-9,37.5,2.9,77,31.2,103.2c-27.1-10-50.1-24-67.4-36.7c-16.9-12.3-32.5-26.2-46.8-41.5
	c14.3-15.3,30-29.1,46.8-41.5c17.4-12.7,40.4-26.7,67.4-36.7l13.3,15c34.9-32.7,89.7-30.9,122.4,4.1s30.9,89.7-4.1,122.4
	C271.5,202,250.4,210.3,228.4,210.3L228.4,210.3z M368.3,165.2c-17.4,12.7-40.4,26.7-67.4,36.7C344,162,346.7,94.6,306.8,51.4
	c-1.9-2.1-3.9-4-5.9-5.9c27.1,10,50.1,24,67.4,36.7c16.9,12.3,32.5,26.2,46.8,41.5C400.8,138.9,385.1,152.8,368.3,165.2L368.3,165.2
	z"/>
<path d="M173.3,106.8c-9.4,30.5,7.8,62.8,38.3,72.1s62.8-7.8,72.1-38.3s-7.8-62.8-38.3-72.1c-20-6.1-41.8-1-56.9,13.6l28.4,32
	L173.3,106.8z"/>
</svg>
