<svg id="Capa_1" data-name="Capa 1" xmlns="http://www.w3.org/2000/svg" viewBox="0 0 456.79501 247.353"><defs><style>.cls-1{fill:#fff;}</style></defs><title>eye</title><path class="cls-1" d="M448.947,113.754c-.922-1.168-23.055-28.933-61-56.81C337.242,19.691,282.07,0,228.396,0,174.724,0,119.552,19.691,68.845,56.944c-37.944,27.876-60.077,55.642-61,56.81L0,123.676l7.846,9.923c.923,1.168,23.056,28.934,61,56.811,50.707,37.252,105.879,56.943,159.551,56.943,53.673,0,108.845-19.691,159.55-56.943,37.945-27.877,60.078-55.643,61-56.811l7.848-9.923ZM228.396,210.318a86.67745,86.67745,0,0,1-83.895-108.326L124.72,98.663a106.56982,106.56982,0,0,0,31.238,103.2c-27.061-9.996-50.072-24.023-67.439-36.709a336.14674,336.14674,0,0,1-46.834-41.478A336.24269,336.24269,0,0,1,88.519,82.198c17.367-12.686,40.379-26.713,67.439-36.71l13.27,14.958a86.62269,86.62269,0,1,1,59.168,149.872Zm139.877-45.164c-17.369,12.686-40.379,26.713-67.439,36.709a106.47032,106.47032,0,0,0,0-156.376c27.061,9.997,50.07,24.024,67.439,36.71a336.21752,336.21752,0,0,1,46.834,41.477A336.03324,336.03324,0,0,1,368.273,165.154Z"/><path class="cls-1" d="M173.261,106.834a57.73452,57.73452,0,1,0,15.203-24.705l28.432,32.048Z"/></svg>