<?xml version="1.0" encoding="utf-8"?>
<!-- Generator: Adobe Illustrator 21.0.0, SVG Export Plug-In . SVG Version: 6.00 Build 0)  -->
<svg version="1.1" id="Capa_1" xmlns="http://www.w3.org/2000/svg" xmlns:xlink="http://www.w3.org/1999/xlink" x="0px" y="0px"
	 viewBox="0 0 36.8 36.8" style="enable-background:new 0 0 36.8 36.8;" xml:space="preserve">
<style type="text/css">
	.st0{fill:#CC3333;}
</style>
<g>
	<g>
		<g>
			<g>
				<path class="st0" d="M29.3,36.8H7.5c-1.4,0-2.5-1.1-2.5-2.5V6c0-1.4,1.1-2.5,2.5-2.5h3.7c0.3,0,0.5,0.2,0.5,0.5
					s-0.2,0.5-0.5,0.5H7.5C6.7,4.5,6,5.2,6,6v28.3c0,0.8,0.7,1.5,1.5,1.5h21.9c0.8,0,1.5-0.7,1.5-1.5V6c0-0.8-0.7-1.5-1.5-1.5h-3.7
					c-0.3,0-0.5-0.2-0.5-0.5s0.2-0.5,0.5-0.5h3.7c1.4,0,2.5,1.1,2.5,2.5v28.3C31.8,35.7,30.7,36.8,29.3,36.8z"/>
			</g>
		</g>
		<path class="st0" d="M25.7,8.4H11.2c-0.3,0-0.5-0.2-0.5-0.5V2.7c0-0.3,0.2-0.5,0.5-0.5h4.6C16,0.9,17.1,0,18.4,0s2.4,0.9,2.6,2.2
			h4.6c0.3,0,0.5,0.2,0.5,0.5v5.2C26.2,8.2,25.9,8.4,25.7,8.4z M11.7,7.4h13.5V3.2h-4.6c-0.3,0-0.5-0.2-0.5-0.5
			c0-0.9-0.8-1.7-1.7-1.7s-1.7,0.8-1.7,1.7c0,0.3-0.2,0.5-0.5,0.5h-4.6L11.7,7.4L11.7,7.4z"/>
	</g>
	<path class="st0" d="M16.7,27.4c-0.2,0-0.4-0.1-0.5-0.3l-2.4-5.3H9.7c-0.3,0-0.5-0.2-0.5-0.5s0.2-0.5,0.5-0.5h4.5
		c0.2,0,0.4,0.1,0.5,0.3l2,4.5l3.6-10.1c0.1-0.2,0.2-0.3,0.4-0.3c0.2,0,0.4,0.1,0.5,0.3l2.5,5.4h3.5c0.3,0,0.5,0.2,0.5,0.5
		s-0.2,0.5-0.5,0.5h-3.8c-0.2,0-0.4-0.1-0.5-0.3l-2.1-4.6L17.1,27C17.1,27.2,16.9,27.3,16.7,27.4C16.7,27.4,16.7,27.4,16.7,27.4z"/>
</g>
</svg>
