<?xml version="1.0" encoding="utf-8"?>
<!-- Generator: Adobe Illustrator 21.0.0, SVG Export Plug-In . SVG Version: 6.00 Build 0)  -->
<svg version="1.1" id="Capa_1" xmlns="http://www.w3.org/2000/svg" xmlns:xlink="http://www.w3.org/1999/xlink" x="0px" y="0px"
	 viewBox="0 0 526 529" style="enable-background:new 0 0 526 529;" xml:space="preserve">
<style type="text/css">
	.st0{fill:#FFFFFF;stroke:#FFFFFF;stroke-width:10;stroke-miterlimit:10;}
</style>
<g>
	<path class="st0" d="M262,8C120.8,8,6,122.8,6,264s114.8,256,256,256s256-114.8,256-256S403.2,8,262,8z M262,501.7
		C130.9,501.7,24.3,395.1,24.3,264S130.9,26.3,262,26.3S499.7,132.9,499.7,264S393.1,501.7,262,501.7z"/>
	<path class="st0" d="M371.7,154.3H152.3c-5.1,0-9.1,4.1-9.1,9.1s4.1,9.1,9.1,9.1h219.4c5.1,0,9.1-4.1,9.1-9.1
		S376.8,154.3,371.7,154.3z"/>
	<path class="st0" d="M371.7,254.9H152.3c-5.1,0-9.1,4.1-9.1,9.1c0,5,4.1,9.1,9.1,9.1h219.4c5.1,0,9.1-4.1,9.1-9.1
		C380.9,259,376.8,254.9,371.7,254.9z"/>
	<path class="st0" d="M371.7,355.4H152.3c-5.1,0-9.1,4.1-9.1,9.1s4.1,9.1,9.1,9.1h219.4c5.1,0,9.1-4.1,9.1-9.1
		S376.8,355.4,371.7,355.4z"/>
</g>
</svg>
