<?xml version="1.0" encoding="utf-8"?>
<!-- Generator: Adobe Illustrator 16.0.0, SVG Export Plug-In . SVG Version: 6.00 Build 0)  -->
<!DOCTYPE svg PUBLIC "-//W3C//DTD SVG 1.1//EN" "http://www.w3.org/Graphics/SVG/1.1/DTD/svg11.dtd">
<svg version="1.1" id="Layer_1" xmlns="http://www.w3.org/2000/svg" xmlns:xlink="http://www.w3.org/1999/xlink" x="0px" y="0px"
	 width="512px" height="512px" viewBox="0 0 512 512" enable-background="new 0 0 512 512" xml:space="preserve">
<g>
	<path fill="#CC3333" stroke="#FFFFFF" stroke-miterlimit="10" d="M255.993,0C114.615,0,0.001,114.622,0.001,255.995
		S114.615,512,255.993,512c141.379,0,256.005-114.625,256.005-256.005S397.372,0,255.993,0z M377.688,184.226l-24.314,24.314
		l-49.495-49.491l-18.777,18.776l49.495,49.495L213.199,348.71l-49.492-49.486L144.93,318l49.492,49.491l-12.097,12.098l-0.23-0.23
		c-1.342,2.208-3.523,3.819-6.113,4.395l-46.154,10.291c-0.691,0.155-1.394,0.23-2.089,0.23c-2.519,0-4.966-0.991-6.78-2.811
		c-2.328-2.319-3.297-5.67-2.581-8.88l10.286-46.14c0.58-2.59,2.195-4.775,4.399-6.113l-0.233-0.234l195.362-195.37
		c2.863-2.859,7.516-2.859,10.38,0.008l39.12,39.112C380.556,176.71,380.556,181.362,377.688,184.226z"/>
</g>
<polygon fill="#FFFFFF" points="334.597,227.321 285.102,177.826 163.707,299.223 213.199,348.71 "/>
</svg>
