<?xml version="1.0" encoding="utf-8"?>
<!-- Generator: Adobe Illustrator 16.0.0, SVG Export Plug-In . SVG Version: 6.00 Build 0)  -->
<!DOCTYPE svg PUBLIC "-//W3C//DTD SVG 1.1//EN" "http://www.w3.org/Graphics/SVG/1.1/DTD/svg11.dtd">
<svg version="1.1" id="Capa_1" xmlns="http://www.w3.org/2000/svg" xmlns:xlink="http://www.w3.org/1999/xlink" x="0px" y="0px"
	 width="595.281px" height="841.891px" viewBox="0 0 595.281 841.891" enable-background="new 0 0 595.281 841.891"
	 xml:space="preserve">
<g>
	<path fill="#FFFFFF" d="M452.046,412.75l-218.27-148.82c-3.046-2.064-6.975-2.292-10.229-0.576
		c-3.244,1.717-5.278,5.09-5.278,8.771v297.641c0,3.681,2.034,7.054,5.288,8.771c1.448,0.773,3.046,1.15,4.633,1.15
		c1.955,0,3.909-0.585,5.585-1.726l218.27-148.82c2.709-1.846,4.336-4.911,4.336-8.195
		C456.381,417.662,454.755,414.595,452.046,412.75z M238.112,550.984V290.906l190.737,130.039L238.112,550.984z"/>
	<path fill="#FFFFFF" d="M297.64,123.305C133.521,123.305,0,256.826,0,420.945c0,164.119,133.521,297.642,297.64,297.642
		c164.119,0,297.641-133.521,297.641-297.642C595.281,256.825,461.759,123.305,297.64,123.305z M297.64,698.742
		c-153.175,0-277.797-124.622-277.797-277.798S144.465,143.147,297.64,143.147c153.176,0,277.796,124.622,277.796,277.798
		S450.816,698.742,297.64,698.742z"/>
</g>
</svg>
