<svg id="Capa_1" data-name="Capa 1" xmlns="http://www.w3.org/2000/svg" viewBox="0 0 54 54"><defs><style>.cls-1{fill:#c33;}.cls-2{fill:#fff;}</style></defs><title>up-arrow</title><path class="cls-1" d="M53,27h0A26.00052,26.00052,0,0,1,27,53h0A26.00052,26.00052,0,0,1,1,27H1A26.00052,26.00052,0,0,1,27,1h0A26.00052,26.00052,0,0,1,53,27Z"/><path class="cls-1" d="M27,54A27,27,0,1,1,54,27,27.03039,27.03039,0,0,1,27,54ZM27,2A25,25,0,1,0,52,27,25.02837,25.02837,0,0,0,27,2Z"/><path class="cls-2" d="M39,32.706a.99726.99726,0,0,1-.707-.293L27,21.12,15.707,32.413a.99985.99985,0,1,1-1.414-1.414L25.791,19.501a1.71289,1.71289,0,0,1,2.418,0L39.707,30.999A1,1,0,0,1,39,32.706Z"/></svg>