<?xml version="1.0" encoding="utf-8"?>
<!-- Generator: Adobe Illustrator 21.0.0, SVG Export Plug-In . SVG Version: 6.00 Build 0)  -->
<svg version="1.1" id="Layer_1" xmlns="http://www.w3.org/2000/svg" xmlns:xlink="http://www.w3.org/1999/xlink" x="0px" y="0px"
	 viewBox="0 0 532 532" style="enable-background:new 0 0 532 532;" xml:space="preserve">
<style type="text/css">
	.st0{fill:#FFFFFF;stroke:#FFFFFF;stroke-width:10;stroke-miterlimit:10;}
</style>
<title>facebook</title>
<path class="st0" d="M479.3,10H52.7C29.3,9.8,10.2,28.5,10,51.8c0,0.3,0,0.6,0,0.8v426.7c-0.2,23.3,18.5,42.4,41.8,42.7
	c0.3,0,0.6,0,0.8,0h426.7c23.3,0.2,42.4-18.5,42.7-41.8c0-0.3,0-0.6,0-0.8V52.7c0.2-23.3-18.5-42.4-41.8-42.7
	C479.9,10,479.6,10,479.3,10z M266,504.9V334.3h-68.3V266H266v-59.7c0-48.6,37.5-89.6,85.3-93.9h76.8v68.3h-68.3
	c-13.9-0.3-25.3,10.8-25.6,24.7c0,0.3,0,0.6,0,0.9V266h85.3v68.3h-85.3V505H266V504.9z M504.9,479.3c0.3,13.9-10.8,25.3-24.7,25.6
	c-0.3,0-0.6,0-0.9,0h-128V351.3h85.3V248.9h-85.3v-42.7c0-5.1,3.4-8.5,8.5-8.5h85.3V95.3h-94.7c-57.2,5.1-101.6,53.8-101.6,110.9
	v42.7h-68.3v102.4h68.3v153.6H52.7c-13.9,0.3-25.3-10.8-25.6-24.7c0-0.3,0-0.6,0-0.9V52.7c-0.3-13.9,10.8-25.3,24.7-25.6
	c0.3,0,0.6,0,0.9,0h426.7c13.9-0.3,25.3,10.8,25.6,24.7c0,0.3,0,0.6,0,0.9v426.6H504.9z"/>
</svg>
