<?xml version="1.0" encoding="utf-8"?>
<!-- Generator: Adobe Illustrator 21.0.0, SVG Export Plug-In . SVG Version: 6.00 Build 0)  -->
<svg version="1.1" id="Capa_1" xmlns="http://www.w3.org/2000/svg" xmlns:xlink="http://www.w3.org/1999/xlink" x="0px" y="0px"
	 viewBox="0 0 33.8 33.8" style="enable-background:new 0 0 33.8 33.8;" xml:space="preserve">
<style type="text/css">
	.st0{fill:#FFFFFF;stroke:#FFFFFF;stroke-miterlimit:10;}
</style>
<title>man</title>
<path class="st0" d="M16.9,33.4C7.8,33.4,0.4,26,0.4,16.9S7.8,0.4,16.9,0.4s16.5,7.4,16.5,16.5C33.4,26,26,33.4,16.9,33.4z
	 M16.9,1.4C8.3,1.4,1.4,8.3,1.4,16.9s6.9,15.5,15.5,15.5s15.5-6.9,15.5-15.5C32.4,8.3,25.4,1.4,16.9,1.4z"/>
<path class="st0" d="M16.9,33.4c-3.4,0-6.7-1.1-9.5-3.1c-0.2-0.2-0.3-0.5-0.1-0.7c0.1-0.1,0.1-0.1,0.2-0.2c4.2-1.5,4.8-2.8,4.8-5.2
	c0-0.4-0.1-0.9-0.4-1.2c-0.6-0.9-1-1.9-1.1-2.9c0-0.3-0.1-0.3-0.3-0.4c-0.6-0.3-1.2-0.7-1.3-2.6c-0.1-0.6,0.1-1.3,0.5-1.7
	c-0.1-0.3-0.1-0.9-0.2-1.5C9,11.1,9,7.7,12.9,6.1c3.4-1.4,6.1-0.6,7,0.3c1.2,0,2.4,0.5,3.3,1.4c1.7,1.9,1.1,6.4,1,7.6
	c0.4,0.5,0.6,1.1,0.6,1.7c-0.1,2-0.7,2.4-1.3,2.7c-0.2,0.1-0.3,0.1-0.3,0.4C23,21.1,22.6,22.2,22,23c-0.3,0.3-0.4,0.8-0.4,1.2
	c0,2.4,0.7,3.6,4.8,5.2c0.3,0.1,0.4,0.4,0.3,0.6c0,0.1-0.1,0.2-0.2,0.2C23.7,32.3,20.3,33.4,16.9,33.4z M8.7,30
	c5,3.1,11.4,3.1,16.4,0c-3.5-1.4-4.6-2.9-4.6-5.8c0-0.6,0.2-1.3,0.6-1.8c0.5-0.8,0.9-1.6,1-2.6c0.1-0.5,0.4-0.9,0.9-1.1
	c0.3-0.1,0.6-0.3,0.7-1.8c0-0.8-0.3-1-0.4-1c-0.2-0.1-0.3-0.3-0.3-0.5c0.3-1.3,0.7-5.5-0.7-7c-0.7-0.7-1.6-1.1-2.6-1.1h-0.1
	c-0.2,0-0.3-0.1-0.4-0.3c-0.3-0.5-2.6-1.4-5.9-0.1s-3.2,4.1-2.8,6.7c0.1,1,0.3,1.8,0.3,1.8c0,0.2-0.1,0.4-0.3,0.5l0,0
	c0,0-0.3,0.2-0.3,1c0.1,1.5,0.4,1.6,0.7,1.8c0.5,0.2,0.8,0.6,0.9,1.1c0.1,0.9,0.5,1.8,1,2.6c0.4,0.5,0.6,1.1,0.6,1.8
	C13.3,27.2,12.2,28.6,8.7,30z"/>
</svg>
