<?xml version="1.0" encoding="utf-8"?>
<!-- Generator: Adobe Illustrator 21.0.0, SVG Export Plug-In . SVG Version: 6.00 Build 0)  -->
<svg version="1.1" id="Layer_1" xmlns="http://www.w3.org/2000/svg" xmlns:xlink="http://www.w3.org/1999/xlink" x="0px" y="0px"
	 viewBox="0 0 531.3 436.6" style="enable-background:new 0 0 531.3 436.6;" xml:space="preserve">
<style type="text/css">
	.st0{fill:#FFFFFF;stroke:#FFFFFF;stroke-width:10;stroke-miterlimit:10;}
</style>
<title>twitter</title>
<path class="st0" d="M518.3,56.9c-2.8-2.5-6.7-3.5-10.4-2.6l-17.4,6.1c9.4-11,16.8-23.7,21.7-37.3c1.7-4.3,0.9-7.8-1.7-10.4
	c-2.8-2.7-6.9-3.4-10.4-1.7c-24.3,10.3-45.1,19-62.5,24.2c0,0.9-0.9,0-1.7,0C422,27.4,388.2,10,363.9,10
	c-61.6,0.9-111.1,53-111.1,116.3v3.5C162.6,112.4,113.1,86.4,59.3,30l-8.7-8.7l-5.2,10.4C15.9,88.1,36.7,139.3,70.6,174
	c-15.6-2.6-26-7.8-35.6-15.6c-3.5-2.6-7.8-3.5-12.1-0.9c-3.5,1.7-5.2,6.9-4.3,11.3c12,40.8,42.4,73.8,75.4,93.8
	c-15.6,0-28.6-1.7-41.7-10.4c-3.5-1.7-8.7-1.7-12.2,0.9c-3.5,2.6-5.2,6.9-3.5,11.3c15.6,44.3,46,67.7,94.6,73.8
	c-25.1,14.6-58,26.8-109.2,27.6c-5,0.1-9.5,3.2-11.3,7.8c-1.7,5.2,0,9.5,3.5,13c31.2,25.2,100.7,39.9,186.6,39.9
	c152.7,0,277.7-136.2,277.7-303.7v-2.6c19.1-9.6,34.7-27.8,42.5-52.9C521.9,63.6,520.9,59.7,518.3,56.9z M466.3,106.3l-5.2,1.7v14.8
	c0,157.9-117.1,286.4-260.3,286.4c-79,0-131.9-13-160.5-26.9c59.9-4.3,94.6-23.4,121.5-44.3l21.7-15.6h-26
	c-49.5,0-79.8-13.9-97.2-46.9c15.6,5.2,32.1,5.2,50.3,4.3c6.9-0.7,13.9-1,20.8-0.9l2.6-17.4c-33-9.5-72-39-91.1-79
	c17.4,7.8,36.4,9.6,53.8,9.6h26.9l-21.7-15.6c-18.2-13-72-59-46-125c55.5,54.7,108.5,79.8,203.9,97.2l10.4,1.8v-24.3
	c0-53.8,41.6-98.1,93.7-98.9c20-0.9,52.9,17.4,62.5,22.6c5.2,2.6,10.4,3.5,15.6,1.7c13-4.3,28.6-10.4,46-17.4
	c-8.5,13.9-19.3,26.3-32.1,36.4c-3.5,2.6-4.3,7.8-2.6,12.2s6.9,6.1,11.3,4.3L498.4,76C492.3,87.3,482.8,100.3,466.3,106.3
	L466.3,106.3z"/>
</svg>
