<?xml version="1.0" encoding="utf-8"?>
<!-- Generator: Adobe Illustrator 21.0.0, SVG Export Plug-In . SVG Version: 6.00 Build 0)  -->
<svg version="1.1" id="Layer_1" xmlns="http://www.w3.org/2000/svg" xmlns:xlink="http://www.w3.org/1999/xlink" x="0px" y="0px"
	 viewBox="0 0 531.2 412.5" style="enable-background:new 0 0 531.2 412.5;" xml:space="preserve">
<style type="text/css">
	.st0{fill:#FFFFFF;stroke:#FFFFFF;stroke-width:10;stroke-miterlimit:10;}
</style>
<title>youtube</title>
<path class="st0" d="M516,97.9c0-1.7-5.1-39.3-21.3-57.2c-19.6-21.3-41-23.9-52-24.8h-3.4c-69.1-5.1-172.4-6-174.1-6
	c-0.8,0-105,0.8-173.2,7.7h-2.5c-11.9,0.8-33.3,3.4-52,24.8c-17.1,17.9-22.2,56.3-22.2,58c0,0-5.1,43.5-5.1,87v40.1
	c0,42.7,5.1,86.2,5.1,87c0,1.7,5.1,39.3,21.3,57.2c17.9,20.5,39.2,23,52.9,24.8c2.3-0.1,4.6,0.1,6.8,0.9c39.3,3.4,163.8,5.1,169,5.1
	c0.9,0,105,0,174.1-7.7h2.6c12-0.9,33.3-3.4,52-24.8c17.1-17.9,22.2-56.3,22.2-58c0,0,5.1-43.5,5.1-87v-40
	C521.2,142.3,516,98.7,516,97.9z M504.1,226.7c0,42.7-5.1,85.3-5.1,85.3c-1.7,9.4-6.8,36.7-17.9,48.6c-14.5,17.1-31.6,18.8-41,19.6
	h-2.6c-68.3,5.1-171.5,5.1-172.4,5.1s-128.9-1.7-166.4-6c-2.6,0-5.1-0.9-7.7-0.9c-11.9-0.9-29-3.4-42.7-18.8
	c-10.2-11.1-16.2-38.4-17.1-47.8c0-0.9-5.1-43.5-5.1-85.3v-40.1c0-42.7,5.1-85.3,5.1-85.3C32,91.7,38,64.4,48.3,52.5
	C63.8,35.6,80,33.9,90.2,33h2.6c68.3-5.1,171.5-6,172.4-6s104.1,0.8,172.4,6h3.4c9.4,0.8,26.5,2.6,41,19.6
	c10.2,12,15.4,39.3,17.1,48.6c0.9,1.7,5.1,44.4,5.1,85.3L504.1,226.7L504.1,226.7z"/>
<path class="st0" d="M371.8,207.1l-162.1-94.7c-2.6-1.7-5.9-1.7-8.5,0c-2.7,1.6-4.3,4.6-4.3,7.7v185.2c0,3.1,1.6,6,4.3,7.7
	c2.7,1.1,5.8,1.1,8.5,0l162.1-90.5c4.2-2.6,5.6-8.1,3-12.4C374.1,208.9,373,207.9,371.8,207.1z M213.9,290.7V134.6l136.5,80.2
	L213.9,290.7z"/>
</svg>
