<?xml version="1.0" encoding="UTF-8"?>
<!DOCTYPE svg PUBLIC "-//W3C//DTD SVG 1.1//EN" "http://www.w3.org/Graphics/SVG/1.1/DTD/svg11.dtd">
<!-- Creator: CorelDRAW X7 -->
<svg xmlns="http://www.w3.org/2000/svg" xml:space="preserve" width="370mm" height="243mm" version="1.1" style="shape-rendering:geometricPrecision; text-rendering:geometricPrecision; image-rendering:optimizeQuality; fill-rule:evenodd; clip-rule:evenodd"
viewBox="0 0 37000 24300"
 xmlns:xlink="http://www.w3.org/1999/xlink">
 <defs>
  <style type="text/css">
   <![CDATA[
    .str0 {stroke:#E31E24;stroke-width:20}
    .fil0 {fill:#E31E24}
    .fil2 {fill:#2B2A29;fill-rule:nonzero}
    .fil1 {fill:#E31E24;fill-rule:nonzero}
   ]]>
  </style>
 </defs>
 <g id="Слой_x0020_1">
  <metadata id="CorelCorpID_0Corel-Layer"/>
  <g id="_2526279990208">
   <path class="fil0 str0" d="M13163 16156l21985 0c177,0 321,151 321,336l0 4911c0,185 -144,336 -321,336l-21985 0c-177,0 -321,-151 -321,-336l0 -4911c0,-185 144,-336 321,-336z"/>
   <path class="fil1" d="M13229 21733l-3338 -347c-2013,-210 -3743,-867 -5201,-1977 -1453,-1111 -2538,-2477 -3259,-4106 -722,-1629 -1069,-3293 -1045,-4995 18,-1305 249,-2550 693,-3742 443,-1186 1098,-2237 1965,-3154 872,-911 1949,-1587 3236,-2021 1287,-439 2736,-572 4338,-405l2896 301 -84 6002 -2470 -257c-842,-87 -1583,44 -2213,391 -630,347 -1105,834 -1431,1469 -327,631 -493,1304 -503,2027 -10,749 146,1488 475,2208 323,719 814,1322 1469,1814 654,491 1426,786 2310,878l2241 233 -79 5681z"/>
   <path class="fil2" d="M12917 21065l1382 -17214c11,-712 230,-1343 659,-1889 429,-551 986,-974 1672,-1279 685,-305 1366,-455 2046,-455 954,0 1816,268 2599,798 776,535 1269,1316 1478,2338l1602 6715 1870 -7154c187,-770 696,-1396 1527,-1878 836,-481 1725,-722 2679,-722 712,0 1376,139 1998,423 621,283 1146,722 1570,1327 423,599 675,1343 744,2231l1383 16759 -6231 0 -675 -11911 -2540 10536c-107,513 -369,920 -787,1214 -418,300 -874,450 -1361,450 -472,0 -906,-123 -1297,-369 -391,-247 -626,-605 -696,-1076l-2700 -10755 -788 11911 -6134 0z"/>
   <path class="fil2" d="M14669 23333l281 71c-59,230 -164,405 -317,526 -152,121 -339,181 -559,181 -228,0 -413,-46 -556,-139 -143,-93 -252,-228 -326,-404 -75,-176 -112,-365 -112,-567 0,-221 41,-413 126,-577 84,-165 204,-290 359,-375 156,-85 327,-128 513,-128 212,0 391,54 535,162 144,108 245,260 301,455l-275 65c-49,-154 -120,-266 -213,-336 -94,-71 -211,-106 -353,-106 -162,0 -298,39 -407,117 -109,78 -186,183 -230,314 -44,132 -66,268 -66,407 0,180 26,338 78,472 52,134 134,235 244,301 111,67 230,100 359,100 157,0 289,-46 397,-136 109,-91 182,-225 221,-403zm634 743l0 -2119 1530 0 0 249 -1249 0 0 651 1169 0 0 248 -1169 0 0 722 1299 0 0 249 -1580 0zm1965 0l0 -2119 288 0 1112 1663 0 -1663 269 0 0 2119 -288 0 -1112 -1663 0 1663 -269 0zm2679 0l0 -1870 -699 0 0 -249 1678 0 0 249 -698 0 0 1870 -281 0zm1275 0l0 -2119 939 0c189,0 332,19 430,57 99,38 177,105 236,201 58,97 88,203 88,320 0,150 -49,277 -146,380 -98,103 -248,168 -451,196 75,36 131,71 169,106 82,75 160,169 232,282l367 577 -351 0 -280 -441c-81,-128 -149,-225 -201,-293 -54,-67 -101,-114 -143,-141 -41,-27 -84,-45 -128,-56 -31,-7 -83,-10 -156,-10l-324 0 0 941 -281 0zm281 -1184l602 0c128,0 227,-13 299,-40 73,-26 127,-68 164,-127 38,-58 56,-121 56,-190 0,-100 -36,-183 -108,-248 -73,-64 -187,-96 -343,-96l-670 0 0 701zm1618 1184l813 -2119 308 0 863 2119 -320 0 -245 -642 -892 0 -230 642 -297 0zm609 -870l722 0 -220 -588c-67,-178 -117,-326 -152,-442 -30,138 -68,274 -117,408l-233 622zm1585 870l0 -2119 281 0 0 1870 1042 0 0 249 -1323 0zm2364 0l0 -2119 421 0 501 1500c46,139 80,244 101,314 24,-77 62,-191 113,-340l510 -1474 376 0 0 2119 -270 0 0 -1773 -618 1773 -253 0 -611 -1805 0 1805 -270 0zm2477 0l0 -2119 1531 0 0 249 -1249 0 0 651 1169 0 0 248 -1169 0 0 722 1299 0 0 249 -1581 0zm1969 0l0 -2119 730 0c164,0 290,10 377,30 121,28 225,79 311,152 112,95 195,215 250,362 56,147 84,315 84,504 0,161 -19,303 -57,428 -37,124 -85,227 -144,309 -59,81 -123,145 -194,191 -69,47 -153,83 -252,107 -99,24 -213,36 -341,36l-764 0zm281 -249l452 0c139,0 249,-12 328,-39 79,-26 143,-62 190,-110 66,-66 118,-156 155,-268 37,-113 56,-249 56,-409 0,-222 -37,-393 -109,-512 -73,-120 -161,-200 -265,-240 -75,-29 -196,-43 -363,-43l-444 0 0 1621zm1903 249l0 -2119 281 0 0 2119 -281 0zm543 0l813 -2119 308 0 863 2119 -320 0 -245 -642 -892 0 -230 642 -297 0zm609 -870l723 0 -221 -588c-67,-178 -117,-326 -152,-442 -29,138 -68,274 -117,408l-233 622z"/>
  </g>
 </g>
</svg>
