<?xml version="1.0" encoding="utf-8"?>
<!-- Generator: Adobe Illustrator 21.0.0, SVG Export Plug-In . SVG Version: 6.00 Build 0)  -->
<svg version="1.1" id="Слой_1" xmlns="http://www.w3.org/2000/svg" xmlns:xlink="http://www.w3.org/1999/xlink" x="0px" y="0px"
	 viewBox="0 0 1048.8 688.8" style="enable-background:new 0 0 1048.8 688.8;" xml:space="preserve">
<style type="text/css">
	.st0{fill:none;stroke:url(#SVGID_1_);stroke-width:15;stroke-miterlimit:10;}
	.st1{fill:none;stroke:url(#SVGID_2_);stroke-width:15;stroke-miterlimit:10;}
	.st2{fill:#E31E24;stroke:url(#SVGID_3_);stroke-width:15;stroke-miterlimit:10;}
	.st3{fill:#2D2D2D;stroke:url(#SVGID_4_);stroke-width:15;stroke-miterlimit:10;}
	.st4{fill:#2D2D2D;stroke:#FFFFFF;stroke-miterlimit:10;}
</style>
<g>
	<radialGradient id="SVGID_1_" cx="578.3843" cy="337.9171" r="94.2379" gradientUnits="userSpaceOnUse">
		<stop  offset="0" style="stop-color:#FFFFFF;stop-opacity:0.5"/>
		<stop  offset="1" style="stop-color:#FFFFFF;stop-opacity:0.5"/>
	</radialGradient>
	<polygon class="st0" points="546.1,457.4 609.1,457.4 559.3,258.9 	"/>
	<radialGradient id="SVGID_2_" cx="806.0658" cy="336.369" r="94.8618" gradientUnits="userSpaceOnUse">
		<stop  offset="0" style="stop-color:#FFFFFF;stop-opacity:0.5"/>
		<stop  offset="1" style="stop-color:#FFFFFF;stop-opacity:0.5"/>
	</radialGradient>
	<polygon class="st1" points="777.3,457.4 836.4,457.4 825.2,258.9 	"/>
	<radialGradient id="SVGID_3_" cx="505.05" cy="320.5265" r="416.1254" gradientUnits="userSpaceOnUse">
		<stop  offset="0" style="stop-color:#FFFFFF;stop-opacity:0.5"/>
		<stop  offset="1" style="stop-color:#FFFFFF;stop-opacity:0.5"/>
	</radialGradient>
	<path class="st2" d="M844.3,596.5l-7.9-139.1h-59.1l-24.2,100.2c-3,14.5-10.5,26.1-22.3,34.4c-11.8,8.5-24.8,12.8-38.6,12.8
		c-13.4,0-25.7-3.5-36.8-10.5s-17.7-17.1-19.7-30.5l-26.7-106.4h-63l-9.2,139.1H363.1l11.2-139.1H374l0-3.1l-63.5-6.6
		c-25.1-2.6-47-11-65.5-24.9c-18.5-13.9-32.4-31-41.6-51.4c-9.4-20.4-13.8-41.4-13.5-62.6c0.3-20.5,5-39.6,14.3-57.5
		c9.3-18,22.7-31.8,40.6-41.6c17.8-9.9,38.8-13.6,62.7-11.1l70,7.3L380,35.8l-82.1-8.5c-45.4-4.7-86.5-0.9-123,11.5
		c-36.5,12.3-67,31.5-91.7,57.3c-24.6,26-43.1,55.8-55.7,89.4C15,219.3,8.4,254.6,7.9,291.6C7.2,339.9,17,387,37.5,433.2
		c20.4,46.2,51.2,84.9,92.4,116.5c41.3,31.4,90.3,50,147.4,56l89.5,9.3c1,0.4,2.1,0.6,3.2,0.6h623.2c5,0,9.1-4.3,9.1-9.5v-9.6H844.3
		z"/>
	<radialGradient id="SVGID_4_" cx="691.9763" cy="305.4" r="322.3439" gradientUnits="userSpaceOnUse">
		<stop  offset="0" style="stop-color:#FFFFFF;stop-opacity:0.5"/>
		<stop  offset="1" style="stop-color:#FFFFFF;stop-opacity:0.5"/>
	</radialGradient>
	<path class="st3" d="M536.9,596.5l9.2-139.1l13.2-198.5l49.8,198.5l26.7,106.4c2,13.4,8.6,23.5,19.7,30.5s23.4,10.5,36.8,10.5
		c13.8,0,26.8-4.3,38.6-12.8c11.8-8.3,19.3-19.9,22.3-34.4l24.2-100.2l47.8-198.5l11.2,198.5l7.9,139.1h158h18.6l-39.2-475.1
		c-2-25.1-9.1-46.2-21.1-63.2c-12-17.1-26.9-29.6-44.5-37.6c-17.6-8.1-36.4-12-56.6-12c-27,0-52.2,6.8-75.9,20.5
		c-23.6,13.6-38,31.4-43.3,53.2l-53,202.8L641.9,94.9C636,65.9,622,43.7,600,28.5c-22.2-15-46.7-22.6-73.7-22.6
		c-19.3,0-38.6,4.3-58,12.9C448.9,27.4,433.1,39.4,421,55c-12.2,15.4-18.4,33.3-18.7,53.5l-28,348.9l-11.2,139.1H536.9z"/>
</g>
<path class="st4" d="M412.7,660.8l8,2c-1.7,6.5-4.6,11.5-9,14.9c-4.3,3.4-9.6,5.1-15.8,5.1c-6.5,0-11.7-1.3-15.8-3.9
	c-4.1-2.6-7.1-6.5-9.2-11.5s-3.2-10.3-3.2-16.1c0-6.3,1.2-11.7,3.6-16.4c2.4-4.7,5.8-8.2,10.2-10.6c4.4-2.4,9.3-3.6,14.5-3.6
	c6,0,11.1,1.5,15.2,4.6s6.9,7.4,8.5,12.9l-7.8,1.8c-1.4-4.4-3.4-7.5-6-9.5c-2.7-2-6-3-10-3c-4.6,0-8.4,1.1-11.5,3.3
	c-3.1,2.2-5.3,5.2-6.5,8.9c-1.2,3.7-1.9,7.6-1.9,11.5c0,5.1,0.7,9.6,2.2,13.4s3.8,6.7,6.9,8.5c3.1,1.9,6.5,2.8,10.2,2.8
	c4.5,0,8.2-1.3,11.3-3.9C409.5,669.8,411.6,665.9,412.7,660.8z M430.7,681.9v-60.1h43.4v7.1h-35.4v18.5h33.1v7h-33.1v20.5h36.8v7.1
	L430.7,681.9L430.7,681.9z M486.4,681.9v-60.1h8.2l31.5,47.1v-47.1h7.6v60.1h-8.2L494,634.8v47.1H486.4z M562.3,681.9v-53h-19.8
	v-7.1h47.6v7.1h-19.8v53H562.3z M598.5,681.9v-60.1h26.6c5.4,0,9.4,0.5,12.2,1.6s5,3,6.7,5.7c1.6,2.7,2.5,5.8,2.5,9.1
	c0,4.3-1.4,7.9-4.1,10.8c-2.8,2.9-7,4.8-12.8,5.6c2.1,1,3.7,2,4.8,3c2.3,2.1,4.5,4.8,6.6,8l10.4,16.4h-9.9l-7.9-12.5
	c-2.3-3.6-4.2-6.4-5.7-8.3c-1.5-1.9-2.9-3.2-4.1-4c-1.2-0.8-2.4-1.3-3.6-1.6c-0.9-0.2-2.4-0.3-4.4-0.3h-9.2v26.7h-8.1V681.9z
	 M606.4,648.3h17.1c3.6,0,6.4-0.4,8.5-1.1s3.6-1.9,4.6-3.6c1.1-1.6,1.6-3.4,1.6-5.4c0-2.8-1-5.2-3.1-7c-2.1-1.8-5.3-2.7-9.7-2.7h-19
	L606.4,648.3L606.4,648.3z M652.3,681.9l23-60.1h8.7l24.5,60.1h-9.1l-6.9-18.2h-25.3l-6.5,18.2H652.3z M669.6,657.3h20.5l-6.2-16.7
	c-1.9-5-3.3-9.2-4.3-12.5c-0.9,3.9-1.9,7.8-3.3,11.6L669.6,657.3z M714.5,681.9v-60.1h8v53H752v7.1H714.5z M781.5,681.9v-60.1h11.9
	l14.2,42.5c1.3,3.9,2.3,6.9,2.9,8.9c0.7-2.2,1.8-5.4,3.2-9.6l14.5-41.8h10.7V682h-7.7v-50.3L813.7,682h-7.2l-17.3-51.2V682
	L781.5,681.9L781.5,681.9z M851.7,681.9v-60.1h43.4v7.1h-35.4v18.5h33.1v7h-33.1v20.5h36.8v7.1L851.7,681.9L851.7,681.9z
	 M907.5,681.9v-60.1h20.7c4.6,0,8.2,0.3,10.7,0.9c3.4,0.8,6.4,2.2,8.8,4.3c3.2,2.7,5.5,6.1,7.1,10.3c1.6,4.2,2.4,8.9,2.4,14.3
	c0,4.6-0.5,8.6-1.6,12.1c-1,3.5-2.4,6.4-4.1,8.8c-1.7,2.3-3.5,4.1-5.5,5.4s-4.3,2.4-7.1,3c-2.8,0.7-6,1-9.7,1H907.5z M915.5,674.8
	h12.8c3.9,0,7.1-0.3,9.3-1.1c2.2-0.7,4.1-1.8,5.4-3.1c1.9-1.9,3.3-4.4,4.4-7.6c1-3.2,1.6-7.1,1.6-11.6c0-6.3-1-11.1-3.1-14.5
	s-4.6-5.7-7.5-6.8c-2.1-0.8-5.6-1.2-10.3-1.2h-12.6L915.5,674.8L915.5,674.8z M969.4,681.9v-60.1h8v60.1H969.4z M984.8,681.9
	l23-60.1h8.7l24.5,60.1h-9.1l-6.9-18.2h-25.3l-6.5,18.2H984.8z M1002.1,657.3h20.5l-6.3-16.7c-1.9-5-3.3-9.2-4.3-12.5
	c-0.8,3.9-1.9,7.8-3.3,11.6L1002.1,657.3z"/>
</svg>
