<?xml version="1.0" encoding="utf-8"?>
<!-- Generator: Adobe Illustrator 21.0.0, SVG Export Plug-In . SVG Version: 6.00 Build 0)  -->
<svg version="1.1" id="Слой_1" xmlns="http://www.w3.org/2000/svg" xmlns:xlink="http://www.w3.org/1999/xlink" x="0px" y="0px"
	 viewBox="0 0 1048.8 688.8" style="enable-background:new 0 0 1048.8 688.8;" xml:space="preserve">
<style type="text/css">
	.st0{fill:#E31E24;}
	.st1{fill:#2D2D2D;}
</style>
<path class="st0" d="M373.1,458h623.2c5,0,9.1,4.3,9.1,9.5v139.2c0,5.2-4.1,9.5-9.1,9.5H373.1c-5,0-9.1-4.3-9.1-9.5V467.5
	C364,462.2,368.1,458,373.1,458z"/>
<path class="st0" d="M375,616.1l-94.6-9.8c-57.1-6-106.1-24.6-147.4-56C91.8,518.7,61,480,40.6,433.8
	c-20.5-46.2-30.3-93.3-29.6-141.6c0.5-37,7.1-72.3,19.6-106.1c12.6-33.6,31.1-63.4,55.7-89.4c24.7-25.8,55.2-45,91.7-57.3
	c36.5-12.4,77.6-16.2,123-11.5l82.1,8.5l-2.4,170.1l-70-7.3c-23.9-2.5-44.9,1.2-62.7,11.1c-17.9,9.8-31.3,23.6-40.6,41.6
	c-9.3,17.9-14,37-14.3,57.5c-0.3,21.2,4.1,42.2,13.5,62.6c9.2,20.4,23.1,37.5,41.6,51.4c18.5,13.9,40.4,22.3,65.5,24.9l63.5,6.6
	L375,616.1z"/>
<path class="st1" d="M366.2,597.1l39.2-488c0.3-20.2,6.5-38.1,18.7-53.5C436.2,40,452,28,471.4,19.4c19.4-8.6,38.7-12.9,58-12.9
	c27,0,51.5,7.6,73.7,22.6c22,15.2,36,37.3,41.9,66.3l45.4,190.3l53-202.8c5.3-21.8,19.7-39.6,43.3-53.2
	C810.4,16,835.6,9.2,862.6,9.2c20.2,0,39,3.9,56.6,12c17.6,8,32.5,20.5,44.5,37.6c12,17,19.1,38.1,21.1,63.2l39.2,475.1H847.4
	l-19.1-337.6l-72,298.7c-3,14.5-10.5,26.1-22.3,34.4c-11.8,8.5-24.8,12.8-38.6,12.8c-13.4,0-25.7-3.5-36.8-10.5
	c-11.1-7-17.7-17.1-19.7-30.5l-76.5-304.9L540,597.1H366.2z"/>
<path class="st1" d="M415.8,661.4l8,2c-1.7,6.5-4.6,11.5-9,14.9c-4.3,3.4-9.6,5.1-15.8,5.1c-6.5,0-11.7-1.3-15.8-3.9
	c-4.1-2.6-7.1-6.5-9.2-11.5c-2.1-5-3.2-10.3-3.2-16.1c0-6.3,1.2-11.7,3.6-16.4c2.4-4.7,5.8-8.2,10.2-10.6c4.4-2.4,9.3-3.6,14.5-3.6
	c6,0,11.1,1.5,15.2,4.6s6.9,7.4,8.5,12.9l-7.8,1.8c-1.4-4.4-3.4-7.5-6-9.5c-2.7-2-6-3-10-3c-4.6,0-8.4,1.1-11.5,3.3
	c-3.1,2.2-5.3,5.2-6.5,8.9c-1.2,3.7-1.9,7.6-1.9,11.5c0,5.1,0.7,9.6,2.2,13.4c1.5,3.8,3.8,6.7,6.9,8.5c3.1,1.9,6.5,2.8,10.2,2.8
	c4.5,0,8.2-1.3,11.3-3.9C412.6,670.3,414.7,666.5,415.8,661.4z M433.8,682.5v-60.1h43.4v7.1h-35.4v18.5h33.1v7h-33.1v20.5h36.8v7.1
	H433.8z M489.5,682.5v-60.1h8.2l31.5,47.1v-47.1h7.6v60.1h-8.2l-31.5-47.1v47.1H489.5z M565.4,682.5v-53h-19.8v-7.1h47.6v7.1h-19.8
	v53H565.4z M601.6,682.5v-60.1h26.6c5.4,0,9.4,0.5,12.2,1.6c2.8,1.1,5,3,6.7,5.7c1.6,2.7,2.5,5.8,2.5,9.1c0,4.3-1.4,7.9-4.1,10.8
	c-2.8,2.9-7,4.8-12.8,5.6c2.1,1,3.7,2,4.8,3c2.3,2.1,4.5,4.8,6.6,8l10.4,16.4h-9.9l-7.9-12.5c-2.3-3.6-4.2-6.4-5.7-8.3
	c-1.5-1.9-2.9-3.2-4.1-4c-1.2-0.8-2.4-1.3-3.6-1.6c-0.9-0.2-2.4-0.3-4.4-0.3h-9.2v26.7H601.6z M609.5,648.9h17.1
	c3.6,0,6.4-0.4,8.5-1.1c2.1-0.7,3.6-1.9,4.6-3.6c1.1-1.6,1.6-3.4,1.6-5.4c0-2.8-1-5.2-3.1-7c-2.1-1.8-5.3-2.7-9.7-2.7h-19V648.9z
	 M655.4,682.5l23-60.1h8.7l24.5,60.1h-9.1l-6.9-18.2h-25.3l-6.5,18.2H655.4z M672.7,657.8h20.5l-6.2-16.7c-1.9-5-3.3-9.2-4.3-12.5
	c-0.9,3.9-1.9,7.8-3.3,11.6L672.7,657.8z M717.6,682.5v-60.1h8v53h29.5v7.1H717.6z M784.6,682.5v-60.1h11.9l14.2,42.5
	c1.3,3.9,2.3,6.9,2.9,8.9c0.7-2.2,1.8-5.4,3.2-9.6l14.5-41.8h10.7v60.1h-7.7v-50.3l-17.5,50.3h-7.2l-17.3-51.2v51.2H784.6z
	 M854.8,682.5v-60.1h43.4v7.1h-35.4v18.5h33.1v7h-33.1v20.5h36.8v7.1H854.8z M910.6,682.5v-60.1h20.7c4.6,0,8.2,0.3,10.7,0.9
	c3.4,0.8,6.4,2.2,8.8,4.3c3.2,2.7,5.5,6.1,7.1,10.3c1.6,4.2,2.4,8.9,2.4,14.3c0,4.6-0.5,8.6-1.6,12.1c-1,3.5-2.4,6.4-4.1,8.8
	c-1.7,2.3-3.5,4.1-5.5,5.4c-2,1.3-4.3,2.4-7.1,3c-2.8,0.7-6,1-9.7,1H910.6z M918.6,675.4h12.8c3.9,0,7.1-0.3,9.3-1.1
	c2.2-0.7,4.1-1.8,5.4-3.1c1.9-1.9,3.3-4.4,4.4-7.6c1-3.2,1.6-7.1,1.6-11.6c0-6.3-1-11.1-3.1-14.5c-2.1-3.4-4.6-5.7-7.5-6.8
	c-2.1-0.8-5.6-1.2-10.3-1.2h-12.6V675.4z M972.5,682.5v-60.1h8v60.1H972.5z M987.9,682.5l23-60.1h8.7l24.5,60.1h-9.1l-6.9-18.2
	h-25.3l-6.5,18.2H987.9z M1005.2,657.8h20.5l-6.3-16.7c-1.9-5-3.3-9.2-4.3-12.5c-0.8,3.9-1.9,7.8-3.3,11.6L1005.2,657.8z"/>
</svg>
